{"title":"Formula.1.2016x15.Singapore.Teds.Qualifying.Notebook.SkyF1.720p","uid":15854359,"size":965777022,"categoryP":"video","categoryS":"other","magnet":"?xt=urn:btih:5aec455f51f901ff46f8f86e4f6db3292927a09f&amp;dn=Formula.1.2016x15.Singapore.Teds.Qualifying.Notebook.SkyF1.720p&amp;tr=udp%3A%2F%2Ftracker.leechers-paradise.org%3A6969&amp;tr=udp%3A%2F%2Fzer0day.ch%3A1337&amp;tr=udp%3A%2F%2Fopen.demonii.com%3A1337&amp;tr=udp%3A%2F%2Ftracker.coppersurfer.tk%3A6969&amp;tr=udp%3A%2F%2Fexodus.desync.com%3A6969","seeders":5,"leechers":5,"uploader":"GaYoonFan","files":1,"time":1474219893,"description":"Formula.1.2016x15.Singapore.Teds.Qualifying.Notebook.SkyF1HD.720p50-smcgill1969:\r\n\r\nTed Kravitz gives his analysis on the day's qualifying at the 2016 Singapore Grand Prix at Marina Bay Street Circuit.\r\n\r\n Video\r\n ID : 1\r\n Format : AVC\r\n Format/Info : Advanced Video Codec\r\n Format profile :   \r\n Format settings, CABAC : Yes\r\n Format settings, ReFrames : 4 frames\r\n Codec ID : avc1\r\n Codec ID/Info : Advanced Video Coding\r\n Duration : 29mn 34s\r\n Bit rate : 4 091 Kbps\r\n Width : 1 280 pixels\r\n Height : 720 pixels\r\n Display aspect ratio : 16:9\r\n Frame rate mode : Constant\r\n Frame rate : 50.000 fps\r\n Color space : YUV\r\n Chroma subsampling : 4:2:0\r\n Bit depth : 8 bits\r\n Scan type : Progressive\r\n Bits/(Pixel*Frame) : 0.089\r\n Stream size : 865 MiB (94%)\r\n Writing library : x264 core 142 r2479 dd79a61\r\n Encoding settings : cabac=1 / ref=1 / deblock=1:0:0 / analyse=0x3:0x113 / me=hex / subme=2 / psy=1 / psy_rd=1.00:0.00 / mixed_ref=0 / me_range=16 / chroma_me=1 / trellis=0 / 8x8dct=1 / cqm=0 / deadzone=21,11 / fast_pskip=1 / chroma_qp_offset=0 / threads=24 / lookahead_threads=5 / sliced_threads=0 / nr=0 / decimate=1 / interlaced=0 / bluray_compat=0 / constrained_intra=0 / bframes=3 / b_pyramid=2 / b_adapt=1 / b_bias=0 / direct=1 / weightb=1 / open_gop=0 / weightp=1 / keyint=500 / keyint_min=50 / scenecut=40 / intra_refresh=0 / rc_lookahead=10 / rc=crf / mbtree=1 / crf=20.0 / qcomp=0.60 / qpmin=0 / qpmax=69 / qpstep=4 / vbv_maxrate=62500 / vbv_bufsize=78125 / crf_max=0.0 / nal_hrd=none / filler=0 / ip_ratio=1.40 / aq=1:1.00\r\n Encoded date : UTC 2016-09-17 18:11:31\r\n Tagged date : UTC 2016-09-17 18:11:31\r\n Color range : Limited\r\n Color primaries : BT.709\r\n Transfer characteristics : BT.709\r\n Matrix coefficients : BT.709\r\n\r\n Audio\r\n ID : 2\r\n Format : AAC\r\n Format/Info : Advanced Audio Codec\r\n Format profile : LC\r\n Codec ID : 40\r\n Duration : 29mn 34s\r\n Bit rate mode : Variable\r\n Bit rate : 253 Kbps\r\n Channel(s) : 2 channels\r\n Channel positions : Front: L R\r\n Sampling rate : 48.0 KHz\r\n Frame rate : 46.875 fps (1024 spf)\r\n Compression mode : Lossy\r\n Stream size : 53.6 MiB (6%)\r\n Title : Stereo / Stereo\r\n Language : English\r\n Default : Yes\r\n Alternate group : 1\r\n Encoded date : UTC 2016-09-17 18:11:31\r\n Tagged date : UTC 2016-09-17 18:11:31","torrent":{"xt":"urn:btih:5aec455f51f901ff46f8f86e4f6db3292927a09f","amp;dn":"Formula.1.2016x15.Singapore.Teds.Qualifying.Notebook.SkyF1.720p","amp;tr":["udp%3A%2F%2Ftracker.leechers-paradise.org%3A6969","udp%3A%2F%2Fzer0day.ch%3A1337","udp%3A%2F%2Fopen.demonii.com%3A1337","udp%3A%2F%2Ftracker.coppersurfer.tk%3A6969","udp%3A%2F%2Fexodus.desync.com%3A6969"],"infoHash":"5aec455f51f901ff46f8f86e4f6db3292927a09f","infoHashBuffer":{"type":"Buffer","data":[90,236,69,95,81,249,1,255,70,248,248,110,79,109,179,41,41,39,160,159]},"announce":[],"urlList":[]}}